<?xml version="1.0" encoding="UTF-8"?>
<svg width="60" height="60" viewBox="0 0 60 60" fill="none" xmlns="http://www.w3.org/2000/svg">
  <defs>
    <linearGradient id="iconGradient" x1="0%" y1="0%" x2="100%" y2="100%">
      <stop offset="0%" style="stop-color:#3B82F6;stop-opacity:1" />
      <stop offset="50%" style="stop-color:#8B5CF6;stop-opacity:1" />
      <stop offset="100%" style="stop-color:#06B6D4;stop-opacity:1" />
    </linearGradient>
  </defs>

  <!-- Main circle -->
  <circle cx="30" cy="30" r="25" fill="url(#iconGradient)" />

  <!-- Network nodes -->
  <circle cx="22" cy="20" r="3.5" fill="white" opacity="0.95" />
  <circle cx="38" cy="18" r="3.5" fill="white" opacity="0.95" />
  <circle cx="18" cy="35" r="3" fill="white" opacity="0.9" />
  <circle cx="30" cy="40" r="3" fill="white" opacity="0.9" />
  <circle cx="42" cy="35" r="3" fill="white" opacity="0.9" />
  <circle cx="30" cy="25" r="2.5" fill="white" opacity="1" />

  <!-- Connection lines -->
  <line x1="22" y1="20" x2="30" y2="25" stroke="white" stroke-width="2" opacity="0.8" />
  <line x1="38" y1="18" x2="30" y2="25" stroke="white" stroke-width="2" opacity="0.8" />
  <line x1="30" y1="25" x2="18" y2="35" stroke="white" stroke-width="2" opacity="0.8" />
  <line x1="30" y1="25" x2="30" y2="40" stroke="white" stroke-width="2" opacity="0.8" />
  <line x1="30" y1="25" x2="42" y2="35" stroke="white" stroke-width="2" opacity="0.8" />
  <line x1="18" y1="35" x2="30" y2="40" stroke="white" stroke-width="1.5" opacity="0.6" />
  <line x1="42" y1="35" x2="30" y2="40" stroke="white" stroke-width="1.5" opacity="0.6" />

  <!-- Central connecting lines for more network effect -->
  <line x1="22" y1="20" x2="38" y2="18" stroke="white" stroke-width="1" opacity="0.4" />
  <line x1="18" y1="35" x2="42" y2="35" stroke="white" stroke-width="1" opacity="0.4" />
</svg>